<mxfile host="app.diagrams.net" modified="2021-08-02T11:56:47.867Z" agent="5.0 (Macintosh; Intel Mac OS X 10_15_7) AppleWebKit/605.1.15 (KHTML, like Gecko) Version/14.1.1 Safari/605.1.15" etag="CpQJ5npj98619kV9N8qW" version="14.9.3" type="github">
  <diagram id="C5RBs43oDa-KdzZeNtuy" name="Page-1">
    <mxGraphModel dx="967" dy="623" grid="1" gridSize="10" guides="1" tooltips="1" connect="1" arrows="1" fold="1" page="1" pageScale="1" pageWidth="827" pageHeight="1169" math="0" shadow="0">
      <root>
        <mxCell id="WIyWlLk6GJQsqaUBKTNV-0" />
        <mxCell id="WIyWlLk6GJQsqaUBKTNV-1" parent="WIyWlLk6GJQsqaUBKTNV-0" />
        <mxCell id="XZN3L2ZChlpk_JU45EwO-8" style="edgeStyle=orthogonalEdgeStyle;rounded=0;orthogonalLoop=1;jettySize=auto;html=1;entryX=0.5;entryY=0;entryDx=0;entryDy=0;" edge="1" parent="WIyWlLk6GJQsqaUBKTNV-1" source="XZN3L2ZChlpk_JU45EwO-4" target="XZN3L2ZChlpk_JU45EwO-5">
          <mxGeometry relative="1" as="geometry" />
        </mxCell>
        <mxCell id="XZN3L2ZChlpk_JU45EwO-4" value="&lt;font style=&quot;font-size: 14px&quot;&gt;299,065 record from four IAPT services in London&lt;/font&gt;" style="rounded=0;whiteSpace=wrap;html=1;" vertex="1" parent="WIyWlLk6GJQsqaUBKTNV-1">
          <mxGeometry x="200" y="120" width="160" height="80" as="geometry" />
        </mxCell>
        <mxCell id="XZN3L2ZChlpk_JU45EwO-9" style="edgeStyle=orthogonalEdgeStyle;rounded=0;orthogonalLoop=1;jettySize=auto;html=1;entryX=0.5;entryY=0;entryDx=0;entryDy=0;" edge="1" parent="WIyWlLk6GJQsqaUBKTNV-1" source="XZN3L2ZChlpk_JU45EwO-5" target="XZN3L2ZChlpk_JU45EwO-6">
          <mxGeometry relative="1" as="geometry" />
        </mxCell>
        <mxCell id="XZN3L2ZChlpk_JU45EwO-5" value="&lt;font style=&quot;font-size: 14px&quot;&gt;102,603 records&lt;/font&gt;" style="rounded=0;whiteSpace=wrap;html=1;" vertex="1" parent="WIyWlLk6GJQsqaUBKTNV-1">
          <mxGeometry x="200" y="280" width="160" height="80" as="geometry" />
        </mxCell>
        <mxCell id="XZN3L2ZChlpk_JU45EwO-10" style="edgeStyle=orthogonalEdgeStyle;rounded=0;orthogonalLoop=1;jettySize=auto;html=1;exitX=0.5;exitY=1;exitDx=0;exitDy=0;entryX=0.5;entryY=0;entryDx=0;entryDy=0;" edge="1" parent="WIyWlLk6GJQsqaUBKTNV-1" source="XZN3L2ZChlpk_JU45EwO-6" target="XZN3L2ZChlpk_JU45EwO-7">
          <mxGeometry relative="1" as="geometry" />
        </mxCell>
        <mxCell id="XZN3L2ZChlpk_JU45EwO-6" value="&lt;div&gt;&lt;font style=&quot;font-size: 14px&quot;&gt;68,085 records&lt;/font&gt;&lt;/div&gt;" style="rounded=0;whiteSpace=wrap;html=1;" vertex="1" parent="WIyWlLk6GJQsqaUBKTNV-1">
          <mxGeometry x="200" y="440" width="160" height="80" as="geometry" />
        </mxCell>
        <mxCell id="XZN3L2ZChlpk_JU45EwO-7" value="&lt;font style=&quot;font-size: 14px&quot;&gt;The final dataset contains 45,074 records&lt;/font&gt;" style="rounded=0;whiteSpace=wrap;html=1;" vertex="1" parent="WIyWlLk6GJQsqaUBKTNV-1">
          <mxGeometry x="200" y="600" width="160" height="80" as="geometry" />
        </mxCell>
        <mxCell id="XZN3L2ZChlpk_JU45EwO-14" style="edgeStyle=orthogonalEdgeStyle;rounded=0;orthogonalLoop=1;jettySize=auto;html=1;" edge="1" parent="WIyWlLk6GJQsqaUBKTNV-1" target="XZN3L2ZChlpk_JU45EwO-11">
          <mxGeometry relative="1" as="geometry">
            <mxPoint x="280" y="240" as="sourcePoint" />
          </mxGeometry>
        </mxCell>
        <mxCell id="XZN3L2ZChlpk_JU45EwO-11" value="&lt;font style=&quot;font-size: 14px&quot;&gt;196,462 did not receive high-intensity treatment&lt;/font&gt;" style="rounded=0;whiteSpace=wrap;html=1;" vertex="1" parent="WIyWlLk6GJQsqaUBKTNV-1">
          <mxGeometry x="440" y="200" width="160" height="80" as="geometry" />
        </mxCell>
        <mxCell id="XZN3L2ZChlpk_JU45EwO-15" style="edgeStyle=orthogonalEdgeStyle;rounded=0;orthogonalLoop=1;jettySize=auto;html=1;" edge="1" parent="WIyWlLk6GJQsqaUBKTNV-1" target="XZN3L2ZChlpk_JU45EwO-12">
          <mxGeometry relative="1" as="geometry">
            <mxPoint x="280" y="400" as="sourcePoint" />
          </mxGeometry>
        </mxCell>
        <mxCell id="XZN3L2ZChlpk_JU45EwO-12" value="&lt;font style=&quot;font-size: 14px&quot;&gt;34,518 received a mixture of high and low intensity treatment&lt;/font&gt;" style="rounded=0;whiteSpace=wrap;html=1;" vertex="1" parent="WIyWlLk6GJQsqaUBKTNV-1">
          <mxGeometry x="440" y="360" width="160" height="80" as="geometry" />
        </mxCell>
        <mxCell id="XZN3L2ZChlpk_JU45EwO-16" style="edgeStyle=orthogonalEdgeStyle;rounded=0;orthogonalLoop=1;jettySize=auto;html=1;" edge="1" parent="WIyWlLk6GJQsqaUBKTNV-1" target="XZN3L2ZChlpk_JU45EwO-13">
          <mxGeometry relative="1" as="geometry">
            <mxPoint x="280" y="560" as="sourcePoint" />
          </mxGeometry>
        </mxCell>
        <mxCell id="XZN3L2ZChlpk_JU45EwO-13" value="&lt;font style=&quot;font-size: 14px&quot;&gt;23,011 did not have more than three PHQ-9 scores&lt;/font&gt;" style="rounded=0;whiteSpace=wrap;html=1;" vertex="1" parent="WIyWlLk6GJQsqaUBKTNV-1">
          <mxGeometry x="440" y="520" width="160" height="80" as="geometry" />
        </mxCell>
      </root>
    </mxGraphModel>
  </diagram>
</mxfile>
